<svg width="158" height="512" viewBox="0 0 158 512" fill="none" xmlns="http://www.w3.org/2000/svg">
<path d="M43.4825 84.9385L79.0583 298.45L114.634 84.9385C115.487 79.7758 115.207 74.4892 113.812 69.4458C112.417 64.4024 109.941 59.7231 106.556 55.7327C103.171 51.7422 98.9579 48.5364 94.2095 46.3376C89.4611 44.1389 84.291 43 79.0583 43C73.8255 43 68.6554 44.1389 63.907 46.3376C59.1586 48.5364 54.9457 51.7422 51.5607 55.7327C48.1756 59.7231 45.6997 64.4024 44.3047 69.4458C42.9098 74.4892 42.6292 79.7758 43.4825 84.9385Z" stroke="#A50000" stroke-width="85.1774" stroke-linecap="round" stroke-linejoin="round"/>
<path d="M79.0714 483C63.3907 483 50.6789 470.288 50.6789 454.608C50.6789 438.927 63.3907 426.215 79.0714 426.215C94.7521 426.215 107.464 438.927 107.464 454.608C107.464 470.288 94.7521 483 79.0714 483Z" stroke="#A50000" stroke-width="56.7849"/>
</svg>
